<svg xmlns="http://www.w3.org/2000/svg" style="display:none">
  <symbol id="info" viewBox="0 0 24 24">
    <circle cx="12" cy="12" r="10" />
    <path d="M12 16v-4" />
    <path d="M12 8h.01" />
  </symbol>
  <symbol id="x" viewBox="0 0 24 24">
    <path d="M18 6 6 18" />
    <path d="m6 6 12 12" />
  </symbol>
  <symbol id="external-link" viewBox="0 0 24 24">
    <path d="M15 3h6v6" />
    <path d="M10 14 21 3" />
    <path d="M18 13v6a2 2 0 0 1-2 2H5a2 2 0 0 1-2-2V8a2 2 0 0 1 2-2h6" />
  </symbol>
  <symbol id="calendar" viewBox="0 0 24 24">
    <path d="M8 2v4" />
    <path d="M16 2v4" />
    <rect x="3" y="4" width="18" height="18" rx="2" />
    <path d="M3 10h18" />
  </symbol>
  <symbol id="search" viewBox="0 0 24 24">
    <circle cx="11" cy="11" r="8" />
    <path d="m21 21-4.3-4.3" />
  </symbol>
  <symbol id="rotate-ccw" viewBox="0 0 24 24">
    <path d="M3 12a9 9 0 1 0 9-9 9.75 9.75 0 0 0-6.74 2.74L3 8" />
    <path d="M3 3v5h5" />
  </symbol>
  <symbol id="sliders-horizontal" viewBox="0 0 24 24">
    <path d="M21 4h-7" />
    <path d="M10 4H3" />
    <path d="M21 12h-9" />
    <path d="M8 12H3" />
    <path d="M21 20h-5" />
    <path d="M12 20H3" />
    <circle cx="12" cy="4" r="2" />
    <circle cx="10" cy="12" r="2" />
    <circle cx="14" cy="20" r="2" />
  </symbol>
  <symbol id="clock" viewBox="0 0 24 24">
    <circle cx="12" cy="12" r="10" />
    <path d="M12 6v6l4 2" />
  </symbol>
  <symbol id="users" viewBox="0 0 24 24">
    <path d="M16 21v-2a4 4 0 0 0-4-4H6a4 4 0 0 0-4 4v2" />
    <circle cx="9" cy="7" r="4" />
    <path d="M22 21v-2a4 4 0 0 0-3-3.87" />
    <path d="M16 3.13a4 4 0 0 1 0 7.75" />
  </symbol>
  <symbol id="user" viewBox="0 0 24 24">
    <path d="M19 21v-2a4 4 0 0 0-4-4H9a4 4 0 0 0-4 4v2" />
    <circle cx="12" cy="7" r="4" />
  </symbol>
  <symbol id="map-pin" viewBox="0 0 24 24">
    <path d="M20 10c0 4.99-5.54 10.19-7.4 11.79a1 1 0 0 1-1.2 0C9.54 20.19 4 14.99 4 10a8 8 0 0 1 16 0" />
    <circle cx="12" cy="10" r="3" />
  </symbol>
  <symbol id="mail" viewBox="0 0 24 24">
    <rect width="20" height="16" x="2" y="4" rx="2" />
    <path d="m22 7-8.97 5.7a2 2 0 0 1-2.06 0L2 7" />
  </symbol>
</svg>
